<?xml version="1.0" encoding="UTF-8"?>
<!DOCTYPE svg PUBLIC "-//W3C//DTD SVG 1.1//EN" "http://www.w3.org/Graphics/SVG/1.1/DTD/svg11.dtd">
<!-- Creator: CorelDRAW X7 -->
<svg xmlns="http://www.w3.org/2000/svg" xml:space="preserve" width="150mm" height="35.991mm" version="1.1" style="shape-rendering:geometricPrecision; text-rendering:geometricPrecision; image-rendering:optimizeQuality; fill-rule:evenodd; clip-rule:evenodd"
viewBox="0 0 1705 409"
 xmlns:xlink="http://www.w3.org/1999/xlink">
 <defs>
  <style type="text/css">
   <![CDATA[
    .fil1 {fill:#00CDFF;fill-rule:nonzero}
    .fil0 {fill:white;fill-rule:nonzero}
   ]]>
  </style>
 </defs>
 <g id="Слой_x0020_1">
  <metadata id="CorelCorpID_0Corel-Layer"/>
  <g id="_2017407462960">
   <path class="fil0" d="M14 355l-13 0 0 -6 20 0 0 37 13 0 0 6 -34 0 0 -6 14 0 0 -31zm3 -24c0,0 1,1 2,1 1,0 1,1 2,1 0,1 1,1 1,2 0,1 0,1 0,2 0,1 0,2 0,2 0,1 -1,2 -1,2 -1,1 -1,1 -2,2 -1,0 -2,0 -2,0 -1,0 -2,0 -3,0 0,-1 -1,-1 -2,-2 0,0 -1,-1 -1,-2 0,0 0,-1 0,-2 0,-1 0,-1 0,-2 0,-1 1,-1 1,-2 1,0 2,-1 2,-1 1,0 2,-1 3,-1zm30 18l7 0 0 7c1,-1 2,-3 3,-4 2,-1 3,-1 4,-2 1,-1 2,-1 3,-1 1,0 3,-1 4,-1 4,0 8,2 10,4 2,3 3,7 3,12l0 28 -7 0 0 -27c0,-4 -1,-6 -2,-8 -1,-1 -3,-2 -6,-2 -1,0 -1,0 -2,0 -1,0 -2,1 -3,2 -1,0 -2,1 -3,2 -1,1 -2,3 -4,5l0 28 -7 0 0 -43zm82 42c-2,0 -4,1 -5,1 -2,0 -4,0 -6,0 -5,0 -9,-1 -12,-3 -2,-3 -4,-6 -4,-11l0 -23 -11 0 0 -6 11 0 0 -11 8 -2 0 13 19 0 0 6 -19 0 0 22c0,3 1,5 2,7 2,1 4,2 7,2 2,0 3,0 5,0 1,0 3,-1 5,-1l0 6zm49 -23c0,1 0,2 0,3 0,1 0,1 0,2l-30 0c0,4 1,7 4,10 2,2 6,3 10,3 1,0 3,0 4,0 1,0 2,0 3,0 2,0 3,-1 4,-1 1,0 2,0 3,-1l0 7c-2,0 -5,1 -7,1 -3,0 -5,0 -8,0 -4,0 -7,0 -9,-1 -3,-1 -5,-2 -7,-4 -1,-2 -3,-5 -3,-7 -1,-3 -2,-6 -2,-9 0,-3 1,-6 2,-9 0,-3 2,-5 3,-7 2,-2 4,-4 6,-5 3,-1 6,-2 9,-2 3,0 5,1 7,2 3,1 5,2 6,4 2,2 3,4 4,6 1,2 1,5 1,8zm-8 -1c0,-2 0,-3 0,-5 -1,-2 -1,-3 -2,-4 -1,-1 -2,-2 -4,-3 -1,0 -3,-1 -5,-1 -1,0 -3,1 -4,1 -1,1 -3,2 -4,3 -1,1 -1,2 -2,4 0,2 -1,3 -1,5l22 0zm21 -18l7 0 0 8c3,-3 5,-5 8,-6 2,-2 5,-3 7,-3 5,0 8,2 10,5 2,3 3,7 3,12l-7 0c0,-3 -1,-6 -2,-8 -1,-1 -3,-2 -5,-2 -1,0 -2,0 -3,0 -1,1 -2,1 -3,2 -1,1 -2,2 -3,3 -2,1 -3,3 -4,4l0 28 -8 0 0 -43zm74 43l-1 -6c-2,2 -4,4 -7,5 -2,1 -5,1 -7,1 -3,0 -5,0 -6,-1 -2,0 -4,-1 -5,-2 -1,-1 -2,-2 -2,-4 -1,-1 -1,-3 -1,-5 0,-4 2,-7 5,-10 3,-2 8,-3 14,-3l9 0 0 -4c0,-3 -1,-5 -3,-6 -1,-2 -4,-2 -7,-2 -2,0 -5,0 -7,1 -2,0 -5,1 -7,2l0 -7c1,0 2,0 3,-1 1,0 2,0 3,-1 2,0 3,0 4,0 2,0 3,-1 5,-1 2,0 4,1 6,1 2,1 4,2 6,3 1,1 2,3 3,4 1,2 1,4 1,6l0 30 -6 0zm-1 -20l-10 0c-1,0 -3,1 -4,1 -2,0 -3,1 -4,1 0,1 -1,2 -1,3 -1,1 -1,2 -1,3 0,1 0,2 0,2 1,1 1,2 2,2 0,1 1,1 2,2 1,0 2,0 3,0 2,0 4,0 6,-1 2,-1 4,-3 7,-5l0 -8zm54 18c-2,1 -4,1 -6,2 -2,0 -4,0 -6,0 -7,0 -12,-2 -16,-5 -3,-4 -5,-9 -5,-16 0,-3 0,-7 1,-9 1,-3 3,-5 5,-7 2,-2 4,-4 6,-5 3,-1 6,-1 9,-1 2,0 4,0 6,0 2,0 4,1 6,2l0 7c-2,-1 -4,-2 -6,-2 -2,-1 -4,-1 -6,-1 -2,0 -3,0 -5,1 -2,1 -3,2 -4,3 -2,1 -3,3 -3,5 -1,2 -2,4 -2,7 0,5 2,9 4,11 3,3 6,4 11,4 2,0 3,0 5,-1 2,0 4,-1 6,-2l0 7zm49 1c-2,0 -4,1 -6,1 -1,0 -3,0 -5,0 -5,0 -9,-1 -12,-3 -3,-3 -4,-6 -4,-11l0 -23 -12 0 0 -6 12 0 0 -11 8 -2 0 13 19 0 0 6 -19 0 0 22c0,3 0,5 2,7 2,1 4,2 7,2 1,0 3,0 4,0 2,0 4,-1 6,-1l0 6zm27 -36l-12 0 0 -6 20 0 0 37 12 0 0 6 -34 0 0 -6 14 0 0 -31zm3 -24c1,0 2,1 2,1 1,0 2,1 2,1 1,1 1,1 1,2 1,1 1,1 1,2 0,1 0,2 -1,2 0,1 0,2 -1,2 0,1 -1,1 -2,2 0,0 -1,0 -2,0 -1,0 -2,0 -2,0 -1,-1 -2,-1 -2,-2 -1,0 -1,-1 -1,-2 -1,0 -1,-1 -1,-2 0,-1 0,-1 1,-2 0,-1 0,-1 1,-2 0,0 1,-1 2,-1 0,0 1,-1 2,-1zm27 18l8 0 10 28 3 7 2 -7 10 -28 8 0 -16 43 -9 0 -16 -43zm87 19c0,1 0,2 0,3 0,1 0,1 0,2l-30 0c0,4 1,7 4,10 2,2 5,3 10,3 1,0 2,0 4,0 1,0 2,0 3,0 1,0 3,-1 4,-1 1,0 2,0 3,-1l0 7c-2,0 -5,1 -7,1 -3,0 -5,0 -8,0 -4,0 -7,0 -9,-1 -3,-1 -5,-2 -7,-4 -2,-2 -3,-5 -4,-7 0,-3 -1,-6 -1,-9 0,-3 1,-6 1,-9 1,-3 3,-5 4,-7 2,-2 4,-4 6,-5 3,-1 5,-2 8,-2 3,0 6,1 8,2 3,1 5,2 6,4 2,2 3,4 4,6 0,2 1,5 1,8zm-8 -1c0,-2 0,-3 0,-5 -1,-2 -1,-3 -2,-4 -1,-1 -3,-2 -4,-3 -1,0 -3,-1 -5,-1 -1,0 -3,1 -4,1 -2,1 -3,2 -4,3 -1,1 -1,2 -2,4 -1,2 -1,3 -1,5l22 0zm82 -29l-13 0 0 -6 20 0 0 54 13 0 0 6 -34 0 0 -6 14 0 0 -48zm60 54l0 -6c-3,2 -5,4 -7,5 -3,1 -5,1 -8,1 -2,0 -4,0 -6,-1 -2,0 -3,-1 -4,-2 -1,-1 -2,-2 -3,-4 0,-1 0,-3 0,-5 0,-4 1,-7 4,-10 3,-2 8,-3 14,-3l9 0 0 -4c0,-3 -1,-5 -2,-6 -2,-2 -4,-2 -8,-2 -2,0 -4,0 -7,1 -2,0 -4,1 -7,2l0 -7c1,0 2,0 3,-1 1,0 3,0 4,-1 1,0 2,0 4,0 1,0 3,-1 4,-1 3,0 5,1 7,1 2,1 4,2 5,3 2,1 3,3 3,4 1,2 1,4 1,6l0 30 -6 0zm-1 -20l-9 0c-2,0 -4,1 -5,1 -1,0 -2,1 -3,1 -1,1 -2,2 -2,3 0,1 -1,2 -1,3 0,1 0,2 1,2 0,1 0,2 1,2 0,1 1,1 2,2 1,0 2,0 3,0 2,0 4,0 6,-1 2,-1 5,-3 7,-5l0 -8zm57 -2c0,3 0,6 -1,9 -1,3 -2,5 -4,7 -2,2 -4,4 -7,5 -2,1 -5,1 -8,1 -3,0 -5,0 -8,-1 -3,0 -5,-1 -8,-2l0 -57 8 0 0 16 -1 8c2,-3 5,-5 7,-6 2,-1 5,-2 8,-2 2,0 4,1 6,2 2,1 4,2 5,4 1,2 2,4 3,7 0,3 0,5 0,9zm-7 0c0,-2 0,-4 -1,-6 0,-2 0,-4 -1,-5 -1,-1 -2,-2 -3,-3 -1,-1 -2,-1 -4,-1 -1,0 -2,0 -3,0 -1,1 -2,1 -3,2 -1,0 -2,1 -3,3 -1,1 -2,2 -3,4l0 20c1,1 2,1 4,2 1,0 3,0 4,0 2,0 4,0 5,-1 2,0 3,-1 4,-2 1,-2 2,-3 3,-5 1,-2 1,-5 1,-8zm56 0c0,3 -1,6 -2,9 -1,3 -2,5 -4,7 -1,2 -4,4 -6,5 -3,1 -5,1 -9,1 -3,0 -5,0 -8,-1 -2,-1 -4,-2 -6,-4 -2,-2 -3,-4 -4,-7 -1,-3 -1,-6 -1,-9 0,-4 0,-7 1,-9 1,-3 3,-5 4,-7 2,-2 4,-4 7,-5 2,-1 5,-2 8,-2 3,0 6,1 8,2 3,1 5,2 7,4 1,2 2,4 3,7 1,3 2,6 2,9zm-8 0c0,-2 0,-4 -1,-6 0,-2 -1,-4 -2,-5 -1,-2 -3,-3 -4,-3 -2,-1 -3,-1 -5,-1 -2,0 -4,0 -6,1 -1,1 -3,2 -4,3 -1,2 -1,4 -2,5 0,2 -1,4 -1,6 0,3 1,5 1,7 1,2 2,4 3,5 1,2 2,3 4,3 1,1 3,1 5,1 2,0 4,0 5,-1 2,-1 3,-2 4,-4 1,-1 2,-3 2,-5 1,-1 1,-3 1,-6zm20 -21l7 0 0 8c2,-3 5,-5 7,-6 3,-2 5,-3 8,-3 4,0 7,2 10,5 2,3 3,7 3,12l-8 0c1,-3 0,-6 -1,-8 -1,-1 -3,-2 -5,-2 -1,0 -2,0 -3,0 -1,1 -2,1 -3,2 -1,1 -3,2 -4,3 -1,1 -2,3 -4,4l0 28 -7 0 0 -43zm73 43l0 -6c-2,2 -5,4 -7,5 -2,1 -5,1 -8,1 -2,0 -4,0 -6,-1 -1,0 -3,-1 -4,-2 -1,-1 -2,-2 -2,-4 -1,-1 -1,-3 -1,-5 0,-4 1,-7 5,-10 3,-2 7,-3 14,-3l8 0 0 -4c0,-3 0,-5 -2,-6 -2,-2 -4,-2 -7,-2 -3,0 -5,0 -7,1 -3,0 -5,1 -8,2l0 -7c1,0 2,0 3,-1 2,0 3,0 4,-1 1,0 3,0 4,0 1,0 3,-1 4,-1 3,0 5,1 7,1 2,1 4,2 5,3 2,1 3,3 4,4 0,2 1,4 1,6l0 30 -7 0zm-1 -20l-9 0c-2,0 -3,1 -5,1 -1,0 -2,1 -3,1 -1,1 -1,2 -2,3 0,1 0,2 0,3 0,1 0,2 0,2 0,1 1,2 1,2 1,1 1,1 2,2 1,0 2,0 4,0 1,0 3,0 5,-1 3,-1 5,-3 7,-5l0 -8zm56 19c-2,0 -4,1 -6,1 -1,0 -3,0 -5,0 -5,0 -9,-1 -12,-3 -2,-3 -4,-6 -4,-11l0 -23 -12 0 0 -6 12 0 0 -11 8 -2 0 13 19 0 0 6 -19 0 0 22c0,3 0,5 2,7 2,1 4,2 7,2 1,0 3,0 5,0 1,0 3,-1 5,-1l0 6zm50 -21c0,3 -1,6 -1,9 -1,3 -3,5 -4,7 -2,2 -4,4 -7,5 -2,1 -5,1 -8,1 -3,0 -6,0 -9,-1 -2,-1 -4,-2 -6,-4 -1,-2 -3,-4 -4,-7 0,-3 -1,-6 -1,-9 0,-4 1,-7 2,-9 0,-3 2,-5 4,-7 1,-2 3,-4 6,-5 2,-1 5,-2 8,-2 3,0 6,1 9,2 2,1 4,2 6,4 1,2 3,4 4,7 0,3 1,6 1,9zm-8 0c0,-2 0,-4 0,-6 -1,-2 -2,-4 -3,-5 -1,-2 -2,-3 -4,-3 -1,-1 -3,-1 -5,-1 -2,0 -4,0 -6,1 -1,1 -2,2 -3,3 -1,2 -2,4 -3,5 0,2 0,4 0,6 0,3 0,5 1,7 0,2 1,4 2,5 1,2 2,3 4,3 1,1 3,1 5,1 2,0 4,0 6,-1 1,-1 2,-2 3,-4 2,-1 2,-3 3,-5 0,-1 0,-3 0,-6zm20 -21l7 0 0 8c3,-3 5,-5 8,-6 2,-2 5,-3 7,-3 4,0 8,2 10,5 2,3 3,7 3,12l-7 0c0,-3 -1,-6 -2,-8 -1,-1 -3,-2 -5,-2 -1,0 -2,0 -3,0 -1,1 -2,1 -3,2 -1,1 -2,2 -3,3 -2,1 -3,3 -4,4l0 28 -8 0 0 -43zm84 0l-15 38c-1,4 -3,7 -4,10 -2,3 -4,5 -6,7 -1,2 -3,3 -6,4 -2,1 -4,1 -7,1 -1,0 -2,0 -2,0 -1,0 -1,0 -2,0l0 -7c0,0 1,1 2,1 1,0 1,0 2,0 2,0 3,0 4,-1 1,0 2,-1 3,-2 1,-1 2,-2 3,-3 1,-2 2,-3 3,-5l-17 -43 8 0 11 28 2 7 3 -7 10 -28 8 0z"/>
   <path class="fil0" d="M0 179c0,-17 2,-31 7,-44 4,-13 11,-23 19,-32 8,-9 18,-16 30,-20 11,-5 24,-7 38,-7 6,0 12,1 18,1 6,1 12,2 18,4l0 -81 33 0 0 271 -30 0 -1 -37c-9,14 -19,24 -30,31 -11,6 -23,9 -35,9 -11,0 -21,-2 -29,-7 -9,-4 -16,-11 -21,-19 -6,-8 -10,-18 -13,-30 -3,-12 -4,-25 -4,-39zm34 -3c0,24 4,41 10,53 7,11 17,17 29,17 9,0 18,-4 27,-12 10,-7 20,-18 30,-33l0 -90c-6,-2 -12,-4 -18,-5 -7,-2 -14,-2 -20,-2 -18,0 -32,5 -43,17 -10,12 -15,30 -15,55zm315 95l0 -26c-11,10 -22,18 -32,22 -11,5 -23,7 -34,7 -11,0 -21,-1 -29,-4 -7,-3 -14,-7 -19,-12 -5,-4 -9,-10 -11,-17 -2,-7 -4,-14 -4,-21 0,-20 8,-35 22,-46 14,-11 36,-16 64,-16l40 0 0 -17c0,-12 -4,-21 -11,-28 -8,-6 -19,-10 -34,-10 -10,0 -21,1 -32,4 -10,2 -21,6 -32,10l0 -30c4,-1 8,-3 14,-4 5,-2 10,-3 16,-4 6,-1 12,-2 18,-3 6,-1 13,-1 19,-1 12,0 22,1 31,4 10,2 18,6 24,11 6,6 11,12 15,20 3,8 5,17 5,28l0 133 -30 0zm-3 -88l-43 0c-8,0 -15,1 -21,3 -6,1 -11,4 -15,7 -4,3 -7,7 -8,11 -2,4 -3,9 -3,14 0,4 0,8 1,11 2,3 4,6 6,9 3,3 6,5 10,6 4,2 9,2 15,2 8,0 16,-2 26,-7 10,-4 21,-12 32,-22l0 -34zm250 85c-7,2 -15,3 -23,4 -8,1 -16,2 -25,2 -24,0 -42,-6 -53,-17 -12,-11 -18,-28 -18,-50l0 -101 -54 0 0 -28 54 0 0 -52 33 -9 0 61 86 0 0 28 -86 0 0 98c0,14 4,24 11,31 7,7 18,10 33,10 6,0 12,0 20,-1 7,-1 14,-3 22,-5l0 29zm185 3l-1 -26c-10,10 -21,18 -32,22 -11,5 -22,7 -34,7 -11,0 -20,-1 -28,-4 -8,-3 -14,-7 -19,-12 -5,-4 -9,-10 -11,-17 -3,-7 -4,-14 -4,-21 0,-20 7,-35 22,-46 14,-11 35,-16 63,-16l40 0 0 -17c0,-12 -3,-21 -11,-28 -7,-6 -18,-10 -33,-10 -11,0 -22,1 -32,4 -11,2 -22,6 -33,10l0 -30c4,-1 9,-3 14,-4 5,-2 11,-3 17,-4 5,-1 11,-2 18,-3 6,-1 12,-1 18,-1 12,0 23,1 32,4 9,2 17,6 24,11 6,6 11,12 14,20 4,8 6,17 6,28l0 133 -30 0zm-4 -88l-42 0c-8,0 -16,1 -22,3 -6,1 -11,4 -14,7 -4,3 -7,7 -9,11 -2,4 -3,9 -3,14 0,4 1,8 2,11 1,3 3,6 6,9 2,3 5,5 10,6 4,2 9,2 15,2 7,0 16,-2 26,-7 10,-4 20,-12 31,-22l0 -34z"/>
   <path class="fil1" d="M932 36l-55 0 0 -36 103 0 0 234 56 0 0 37 -166 0 0 -37 62 0 0 -198zm755 276c10,0 18,9 18,19 0,10 -8,18 -18,18l-179 0c-10,0 -18,-8 -18,-18 0,-10 8,-19 18,-19l179 0zm-480 -41l-1 -26c-4,5 -9,9 -13,12 -5,4 -10,7 -15,10 -5,2 -11,4 -18,6 -6,1 -13,2 -20,2 -10,0 -19,-1 -27,-4 -7,-3 -13,-7 -19,-13 -5,-5 -9,-11 -11,-18 -3,-8 -4,-16 -4,-25 0,-9 2,-18 6,-25 4,-8 10,-15 18,-21 8,-5 18,-10 29,-13 12,-3 26,-5 43,-5l25 0 0 -11c0,-5 -1,-10 -2,-14 -1,-4 -4,-7 -7,-10 -3,-3 -7,-5 -12,-7 -5,-1 -11,-2 -18,-2 -12,0 -23,1 -34,4 -12,3 -22,6 -33,11l0 -37c10,-4 20,-7 32,-10 13,-2 25,-3 38,-3 15,0 27,1 38,4 10,3 18,7 25,12 7,6 12,13 15,21 3,8 5,18 5,29l0 133 -40 0zm-7 -86l-29 0c-7,0 -14,1 -20,2 -5,2 -10,4 -13,6 -4,3 -6,6 -8,10 -1,3 -2,7 -2,11 0,8 2,14 8,18 5,4 12,6 21,6 6,0 13,-2 20,-7 7,-5 15,-11 23,-20l0 -26zm276 -15c0,18 -3,33 -8,46 -5,13 -12,24 -21,33 -9,8 -20,15 -32,19 -12,4 -26,6 -40,6 -14,0 -27,-1 -40,-3 -12,-2 -23,-5 -34,-8l0 -263 46 0 0 64 -2 38c7,-9 16,-16 25,-22 9,-5 21,-8 34,-8 11,0 21,2 30,7 9,4 17,11 23,19 6,9 11,19 14,31 3,12 5,26 5,41zm-50 2c0,-11 0,-20 -2,-28 -1,-7 -4,-13 -6,-18 -3,-5 -7,-9 -11,-11 -4,-2 -9,-3 -14,-3 -8,0 -16,3 -23,9 -7,7 -15,16 -23,26l0 86c4,1 8,2 14,3 5,1 11,1 16,1 8,0 15,-1 21,-4 6,-3 11,-8 15,-13 4,-6 8,-13 10,-21 2,-8 3,-17 3,-27z"/>
  </g>
 </g>
</svg>
